<svg viewBox="0 0 402.11 587" xmlns="http://www.w3.org/2000/svg"><g transform="translate(-8.05 -4)"><path d="m356.07 38.72 8.25 3.28c4.34 1.77 5.94 5.42 6 9.68.07 4-2.52 6.41-6.08 7.86-2.34 1-4.58 2.26-7 2.87-3.09.79-3.54 2.66-3.79 5.48-1.18 13.59 2.85 24.9 12.88 34.44 8.78 8.35 17 17.28 25.17 26.27 13 14.4 19.07 31.15 18.63 50.89-1.3 58.37-2.46 116.76-2.52 175.15-.06 47.38 2.07 94.77 2.26 142.16.15 36.7-16.2 64.8-48.15 83.28-12.94 7.48-27.2 10.8-42.12 10.81q-110.52.09-221 0c-45.85-.09-85.43-36-89.56-81.63-1.1-12.26-.47-24.74.11-37.09 3.84-81.48 3.91-163 .67-244.47-.64-16-.63-32.11-1.59-48.12-1.17-19.47 5.27-36 18-50.33 6.36-7.19 13.22-13.93 19.83-20.89 3-3.12 5.64-6.53 8.82-9.4 9.49-8.57 10.36-19.74 9.73-31.35-.06-1.11-1.41-2.49-2.51-3.15-3.58-2.12-7.42-3.79-11-6-5.25-3.21-5.48-9.68-.35-13.15 3.42-2.31 7.28-4 11.41-6.17-.34-2.53-.72-5.51-1.14-8.47a24.94 24.94 0 0 1 6-20.43c3.73-4.44 8.74-6.24 14.69-6.24 35.29.09 70.53 0 105.79 0h147.88c14.08 0 24.21 12 22 26-.44 2.88-.86 5.74-1.31 8.72zm-84.32 20.74-.09-.4c1-.33 2.08-.71 3.14-1 19.84-5 39.69-10 59.5-15.09 7.23-1.86 6.05-.12 7-7.52.29-2.25.72-4.49 1.05-6.74.91-6.21-2-9.65-8.12-9.65h-250.23c-6.13 0-9 3.44-8.14 9.65.54 3.76 1.08 7.51 1.65 11.25.69 4.82 1.49 9.64-3.51 13.53 20.22-1.32 39.84-5 59.68-7.25a18 18 0 0 1 -3.3 1.41c-15.82 5.15-31.66 10.35-47.54 15.35-2.41.77-3.46 1.74-3.3 4.46a114.22 114.22 0 0 1 -.18 12.13c-.42 8.94-2.82 17.2-9 24-6.9 7.56-13.94 15-20.8 22.57-6.09 6.74-12.39 13.35-17.89 20.55a42 42 0 0 0 -8.5 27.34q1.41 46.25 2.76 92.48c1.6 51.94 2 103.88-.11 155.82-1 25-2 50-2.59 75a76.16 76.16 0 0 0 76.58 78.51q109 .06 218-.07a80.87 80.87 0 0 0 17.3-1.75c35.68-8 60.31-39.63 59.86-76.65-.76-62.56-2-125.12-2.15-187.68-.09-44.87 1.32-89.74 2.18-134.6.21-10.64-2.53-20.32-8.8-28.8-4.19-5.67-9-10.92-13.69-16.18-8.87-9.86-18.27-19.26-26.63-29.52-3.25-4-5.27-9.6-6.12-14.76-1.21-7.29-1-14.84-1-22.28-.06-4.82-.71-10 5.51-12.75l-1-.9z" opacity="1"/><path d="m98.63 64.54a711.1 711.1 0 0 1 200.77-18.54 709.2 709.2 0 0 1 -200.77 18.54z" opacity="1"/><path d="m208.93 81.7h120.07c1.14 0 2.48-.34 3.36.14 1.14.62 2.67 1.92 2.64 2.89s-1.61 2.16-2.76 2.8c-.77.44-2 .12-3 .12q-120.08 0-240.14 0c-2.46 0-6.18 1-6.11-3s3.79-2.87 6.24-2.87q59.84-.12 119.7-.08z" opacity="1"/></g></svg>